<?xml version="1.0" encoding="UTF-8"?>
<svg xmlns="http://www.w3.org/2000/svg" width="1920" height="1080" viewBox="0 0 1920 1080">
  <!-- Definitions -->
  <defs>
    <!-- Background Gradient -->
    <linearGradient id="bgGradient" x1="0%" y1="0%" x2="100%" y2="100%">
      <stop offset="0%" style="stop-color:#1e3a8a;stop-opacity:1" />
      <stop offset="50%" style="stop-color:#7c3aed;stop-opacity:1" />
      <stop offset="100%" style="stop-color:#db2777;stop-opacity:1" />
    </linearGradient>

    <!-- Glassmorphism effect -->
    <filter id="blur">
      <feGaussianBlur in="SourceGraphic" stdDeviation="20"/>
    </filter>

    <!-- Drop shadow for cards -->
    <filter id="cardShadow" x="-50%" y="-50%" width="200%" height="200%">
      <feGaussianBlur in="SourceAlpha" stdDeviation="3"/>
      <feOffset dx="0" dy="2" result="offsetblur"/>
      <feComponentTransfer>
        <feFuncA type="linear" slope="0.3"/>
      </feComponentTransfer>
      <feMerge>
        <feMergeNode/>
        <feMergeNode in="SourceGraphic"/>
      </feMerge>
    </filter>
  </defs>

  <!-- Background -->
  <rect width="1920" height="1080" fill="url(#bgGradient)"/>

  <!-- Controls Bar -->
  <rect x="20" y="20" width="1880" height="60" rx="12" fill="rgba(255, 255, 255, 0.2)" stroke="rgba(255, 255, 255, 0.3)" stroke-width="1"/>
  <text x="50" y="55" font-family="Arial, sans-serif" font-size="20" font-weight="bold" fill="white">Enterprise Process Map</text>

  <!-- Layer Filter Labels -->
  <text x="700" y="50" font-family="Arial, sans-serif" font-size="11" font-weight="600" fill="rgba(255, 255, 255, 0.9)">LAYERS:</text>

  <!-- Layer Filter Buttons -->
  <g id="layerFilters">
    <rect x="780" y="35" width="85" height="24" rx="6" fill="rgba(255, 255, 255, 0.9)"/>
    <text x="822" y="51" font-family="Arial, sans-serif" font-size="10" font-weight="600" fill="#1e3a8a" text-anchor="middle">Supporting</text>

    <rect x="875" y="35" width="85" height="24" rx="6" fill="rgba(255, 255, 255, 0.9)"/>
    <text x="917" y="51" font-family="Arial, sans-serif" font-size="10" font-weight="600" fill="#1e3a8a" text-anchor="middle">Controlling</text>

    <rect x="970" y="35" width="80" height="24" rx="6" fill="rgba(255, 255, 255, 0.9)"/>
    <text x="1010" y="51" font-family="Arial, sans-serif" font-size="10" font-weight="600" fill="#1e3a8a" text-anchor="middle">Operating</text>

    <rect x="1060" y="35" width="95" height="24" rx="6" fill="rgba(255, 255, 255, 0.9)"/>
    <text x="1107" y="51" font-family="Arial, sans-serif" font-size="10" font-weight="600" fill="#1e3a8a" text-anchor="middle">Management</text>
  </g>

  <!-- Map Viewport -->
  <rect x="20" y="95" width="1880" height="965" rx="16" fill="rgba(255, 255, 255, 0.15)" stroke="rgba(255, 255, 255, 0.25)" stroke-width="1"/>

  <!-- Supporting Sidebar -->
  <g id="supportingSidebar">
    <rect x="35" y="110" width="370" height="930" rx="10" fill="rgba(255, 255, 255, 0.1)" stroke="rgba(255, 255, 255, 0.2)" stroke-width="1"/>
    <text x="45" y="130" font-family="Arial, sans-serif" font-size="12" font-weight="bold" fill="white">SUPPORTING</text>

    <!-- Portfolio Management Suite -->
    <g filter="url(#cardShadow)">
      <rect x="45" y="145" width="350" height="95" rx="6" fill="white"/>
      <line x1="50" y1="165" x2="390" y2="165" stroke="#2563eb" stroke-width="2" opacity="0.3"/>
      <text x="50" y="160" font-family="Arial, sans-serif" font-size="10" font-weight="bold" fill="#2563eb">Portfolio Management Suite</text>
      <!-- Activities in 3 columns -->
      <rect x="50" y="170" width="110" height="20" rx="3" fill="rgba(37, 99, 235, 0.1)"/>
      <line x1="50" y1="170" x2="50" y2="190" stroke="#2563eb" stroke-width="2"/>
      <text x="56" y="183" font-family="Arial, sans-serif" font-size="8" fill="#1e3a8a">Copperleaf Portfolio</text>

      <rect x="165" y="170" width="110" height="20" rx="3" fill="rgba(37, 99, 235, 0.1)"/>
      <line x1="165" y1="170" x2="165" y2="190" stroke="#2563eb" stroke-width="2"/>
      <text x="171" y="183" font-family="Arial, sans-serif" font-size="8" fill="#1e3a8a">Copperleaf Value</text>
    </g>

    <!-- Cloud Services -->
    <g filter="url(#cardShadow)">
      <rect x="45" y="250" width="350" height="95" rx="6" fill="white"/>
      <line x1="50" y1="270" x2="390" y2="270" stroke="#2563eb" stroke-width="2" opacity="0.3"/>
      <text x="50" y="265" font-family="Arial, sans-serif" font-size="10" font-weight="bold" fill="#2563eb">Cloud Services</text>
      <!-- Activities in 3 columns -->
      <rect x="50" y="275" width="110" height="20" rx="3" fill="rgba(37, 99, 235, 0.1)"/>
      <line x1="50" y1="275" x2="50" y2="295" stroke="#2563eb" stroke-width="2"/>
      <text x="56" y="288" font-family="Arial, sans-serif" font-size="7.5" fill="#1e3a8a">Cloud Monitoring</text>

      <rect x="165" y="275" width="110" height="20" rx="3" fill="rgba(37, 99, 235, 0.1)"/>
      <line x1="165" y1="275" x2="165" y2="295" stroke="#2563eb" stroke-width="2"/>
      <text x="171" y="288" font-family="Arial, sans-serif" font-size="7.5" fill="#1e3a8a">Cloud Security</text>

      <rect x="280" y="275" width="110" height="20" rx="3" fill="rgba(37, 99, 235, 0.1)"/>
      <line x1="280" y1="275" x2="280" y2="295" stroke="#2563eb" stroke-width="2"/>
      <text x="286" y="288" font-family="Arial, sans-serif" font-size="7.5" fill="#1e3a8a">Cloud Network</text>

      <rect x="50" y="297" width="110" height="20" rx="3" fill="rgba(37, 99, 235, 0.1)"/>
      <line x1="50" y1="297" x2="50" y2="317" stroke="#2563eb" stroke-width="2"/>
      <text x="56" y="310" font-family="Arial, sans-serif" font-size="7.5" fill="#1e3a8a">Cost Management</text>

      <rect x="165" y="297" width="110" height="20" rx="3" fill="rgba(37, 99, 235, 0.1)"/>
      <line x1="165" y1="297" x2="165" y2="317" stroke="#2563eb" stroke-width="2"/>
      <text x="171" y="310" font-family="Arial, sans-serif" font-size="7.5" fill="#1e3a8a">Backup & DR</text>

      <rect x="280" y="297" width="110" height="20" rx="3" fill="rgba(37, 99, 235, 0.1)"/>
      <line x1="280" y1="297" x2="280" y2="317" stroke="#2563eb" stroke-width="2"/>
      <text x="286" y="310" font-family="Arial, sans-serif" font-size="7.5" fill="#1e3a8a">+16 more...</text>
    </g>

    <!-- Cross Module -->
    <g filter="url(#cardShadow)">
      <rect x="45" y="355" width="350" height="95" rx="6" fill="white"/>
      <line x1="50" y1="375" x2="390" y2="375" stroke="#2563eb" stroke-width="2" opacity="0.3"/>
      <text x="50" y="370" font-family="Arial, sans-serif" font-size="10" font-weight="bold" fill="#2563eb">Cross Module</text>
      <rect x="50" y="380" width="110" height="20" rx="3" fill="rgba(37, 99, 235, 0.1)"/>
      <line x1="50" y1="380" x2="50" y2="400" stroke="#2563eb" stroke-width="2"/>
      <text x="56" y="393" font-family="Arial, sans-serif" font-size="7.5" fill="#1e3a8a">Mobile Enablement</text>

      <rect x="165" y="380" width="110" height="20" rx="3" fill="rgba(37, 99, 235, 0.1)"/>
      <line x1="165" y1="380" x2="165" y2="400" stroke="#2563eb" stroke-width="2"/>
      <text x="171" y="393" font-family="Arial, sans-serif" font-size="7.5" fill="#1e3a8a">Smart Templates</text>

      <rect x="280" y="380" width="110" height="20" rx="3" fill="rgba(37, 99, 235, 0.1)"/>
      <line x1="280" y1="380" x2="280" y2="400" stroke="#2563eb" stroke-width="2"/>
      <text x="286" y="393" font-family="Arial, sans-serif" font-size="7.5" fill="#1e3a8a">Mass Updates</text>

      <rect x="50" y="402" width="110" height="20" rx="3" fill="rgba(37, 99, 235, 0.1)"/>
      <line x1="50" y1="402" x2="50" y2="422" stroke="#2563eb" stroke-width="2"/>
      <text x="56" y="415" font-family="Arial, sans-serif" font-size="7.5" fill="#1e3a8a">Migration Tools</text>

      <rect x="165" y="402" width="110" height="20" rx="3" fill="rgba(37, 99, 235, 0.1)"/>
      <line x1="165" y1="402" x2="165" y2="422" stroke="#2563eb" stroke-width="2"/>
      <text x="171" y="415" font-family="Arial, sans-serif" font-size="7.5" fill="#1e3a8a">Integration Services</text>

      <rect x="280" y="402" width="110" height="20" rx="3" fill="rgba(37, 99, 235, 0.1)"/>
      <line x1="280" y1="402" x2="280" y2="422" stroke="#2563eb" stroke-width="2"/>
      <text x="286" y="415" font-family="Arial, sans-serif" font-size="7.5" fill="#1e3a8a">Workflow Config</text>
    </g>

    <!-- AI Platform -->
    <g filter="url(#cardShadow)">
      <rect x="45" y="460" width="350" height="95" rx="6" fill="white"/>
      <line x1="50" y1="480" x2="390" y2="480" stroke="#2563eb" stroke-width="2" opacity="0.3"/>
      <text x="50" y="475" font-family="Arial, sans-serif" font-size="10" font-weight="bold" fill="#2563eb">AI Platform</text>
      <rect x="50" y="485" width="110" height="20" rx="3" fill="rgba(37, 99, 235, 0.1)"/>
      <line x1="50" y1="485" x2="50" y2="505" stroke="#2563eb" stroke-width="2"/>
      <text x="56" y="498" font-family="Arial, sans-serif" font-size="7.5" fill="#1e3a8a">Conversational AI</text>

      <rect x="165" y="485" width="110" height="20" rx="3" fill="rgba(37, 99, 235, 0.1)"/>
      <line x1="165" y1="485" x2="165" y2="505" stroke="#2563eb" stroke-width="2"/>
      <text x="171" y="498" font-family="Arial, sans-serif" font-size="7.5" fill="#1e3a8a">Document Intel</text>

      <rect x="280" y="485" width="110" height="20" rx="3" fill="rgba(37, 99, 235, 0.1)"/>
      <line x1="280" y1="485" x2="280" y2="505" stroke="#2563eb" stroke-width="2"/>
      <text x="286" y="498" font-family="Arial, sans-serif" font-size="7.5" fill="#1e3a8a">Model Training</text>

      <rect x="50" y="507" width="110" height="20" rx="3" fill="rgba(37, 99, 235, 0.1)"/>
      <line x1="50" y1="507" x2="50" y2="527" stroke="#2563eb" stroke-width="2"/>
      <text x="56" y="520" font-family="Arial, sans-serif" font-size="7.5" fill="#1e3a8a">AI Analytics</text>

      <rect x="165" y="507" width="110" height="20" rx="3" fill="rgba(37, 99, 235, 0.1)"/>
      <line x1="165" y1="507" x2="165" y2="527" stroke="#2563eb" stroke-width="2"/>
      <text x="171" y="520" font-family="Arial, sans-serif" font-size="7.5" fill="#1e3a8a">Predictive Maint</text>

      <rect x="280" y="507" width="110" height="20" rx="3" fill="rgba(37, 99, 235, 0.1)"/>
      <line x1="280" y1="507" x2="280" y2="527" stroke="#2563eb" stroke-width="2"/>
      <text x="286" y="520" font-family="Arial, sans-serif" font-size="7.5" fill="#1e3a8a">Computer Vision</text>
    </g>

    <!-- Service Management Suite -->
    <g filter="url(#cardShadow)">
      <rect x="45" y="565" width="350" height="75" rx="6" fill="white"/>
      <line x1="50" y1="585" x2="390" y2="585" stroke="#2563eb" stroke-width="2" opacity="0.3"/>
      <text x="50" y="580" font-family="Arial, sans-serif" font-size="10" font-weight="bold" fill="#2563eb">Service Management Suite</text>
      <rect x="50" y="590" width="110" height="20" rx="3" fill="rgba(37, 99, 235, 0.1)"/>
      <line x1="50" y1="590" x2="50" y2="610" stroke="#2563eb" stroke-width="2"/>
      <text x="56" y="603" font-family="Arial, sans-serif" font-size="7.5" fill="#1e3a8a">Service Catalog</text>

      <rect x="165" y="590" width="110" height="20" rx="3" fill="rgba(37, 99, 235, 0.1)"/>
      <line x1="165" y1="590" x2="165" y2="610" stroke="#2563eb" stroke-width="2"/>
      <text x="171" y="603" font-family="Arial, sans-serif" font-size="7.5" fill="#1e3a8a">Knowledge Mgmt</text>

      <rect x="280" y="590" width="110" height="20" rx="3" fill="rgba(37, 99, 235, 0.1)"/>
      <line x1="280" y1="590" x2="280" y2="610" stroke="#2563eb" stroke-width="2"/>
      <text x="286" y="603" font-family="Arial, sans-serif" font-size="7.5" fill="#1e3a8a">SLA Management</text>
    </g>

    <!-- Customer Experience Suite -->
    <g filter="url(#cardShadow)">
      <rect x="45" y="650" width="350" height="95" rx="6" fill="white"/>
      <line x1="50" y1="670" x2="390" y2="670" stroke="#2563eb" stroke-width="2" opacity="0.3"/>
      <text x="50" y="665" font-family="Arial, sans-serif" font-size="10" font-weight="bold" fill="#2563eb">Customer Experience Suite</text>
      <rect x="50" y="675" width="110" height="20" rx="3" fill="rgba(37, 99, 235, 0.1)"/>
      <line x1="50" y1="675" x2="50" y2="695" stroke="#2563eb" stroke-width="2"/>
      <text x="56" y="688" font-family="Arial, sans-serif" font-size="7.5" fill="#1e3a8a">Omni Channel</text>

      <rect x="165" y="675" width="110" height="20" rx="3" fill="rgba(37, 99, 235, 0.1)"/>
      <line x1="165" y1="675" x2="165" y2="695" stroke="#2563eb" stroke-width="2"/>
      <text x="171" y="688" font-family="Arial, sans-serif" font-size="7.5" fill="#1e3a8a">Customer Portal</text>

      <rect x="280" y="675" width="110" height="20" rx="3" fill="rgba(37, 99, 235, 0.1)"/>
      <line x1="280" y1="675" x2="280" y2="695" stroke="#2563eb" stroke-width="2"/>
      <text x="286" y="688" font-family="Arial, sans-serif" font-size="7.5" fill="#1e3a8a">Survey & Feedback</text>

      <rect x="50" y="697" width="110" height="20" rx="3" fill="rgba(37, 99, 235, 0.1)"/>
      <line x1="50" y1="697" x2="50" y2="717" stroke="#2563eb" stroke-width="2"/>
      <text x="56" y="710" font-family="Arial, sans-serif" font-size="7.5" fill="#1e3a8a">Segmentation</text>

      <rect x="165" y="697" width="110" height="20" rx="3" fill="rgba(37, 99, 235, 0.1)"/>
      <line x1="165" y1="697" x2="165" y2="717" stroke="#2563eb" stroke-width="2"/>
      <text x="171" y="710" font-family="Arial, sans-serif" font-size="7.5" fill="#1e3a8a">Marketing Auto</text>

      <rect x="280" y="697" width="110" height="20" rx="3" fill="rgba(37, 99, 235, 0.1)"/>
      <line x1="280" y1="697" x2="280" y2="717" stroke="#2563eb" stroke-width="2"/>
      <text x="286" y="710" font-family="Arial, sans-serif" font-size="7.5" fill="#1e3a8a">+2 more...</text>
    </g>

    <!-- Enterprise Asset Management -->
    <g filter="url(#cardShadow)">
      <rect x="45" y="755" width="350" height="95" rx="6" fill="white"/>
      <line x1="50" y1="775" x2="390" y2="775" stroke="#2563eb" stroke-width="2" opacity="0.3"/>
      <text x="50" y="770" font-family="Arial, sans-serif" font-size="10" font-weight="bold" fill="#2563eb">Enterprise Asset Management</text>
      <rect x="50" y="780" width="110" height="20" rx="3" fill="rgba(37, 99, 235, 0.1)"/>
      <line x1="50" y1="780" x2="50" y2="800" stroke="#2563eb" stroke-width="2"/>
      <text x="56" y="793" font-family="Arial, sans-serif" font-size="7.5" fill="#1e3a8a">Spatial Asset Mgmt</text>

      <rect x="165" y="780" width="110" height="20" rx="3" fill="rgba(37, 99, 235, 0.1)"/>
      <line x1="165" y1="780" x2="165" y2="800" stroke="#2563eb" stroke-width="2"/>
      <text x="171" y="793" font-family="Arial, sans-serif" font-size="7.5" fill="#1e3a8a">Asset Calibration</text>

      <rect x="280" y="780" width="110" height="20" rx="3" fill="rgba(37, 99, 235, 0.1)"/>
      <line x1="280" y1="780" x2="280" y2="800" stroke="#2563eb" stroke-width="2"/>
      <text x="286" y="793" font-family="Arial, sans-serif" font-size="7.5" fill="#1e3a8a">Asset Config</text>

      <rect x="50" y="802" width="110" height="20" rx="3" fill="rgba(37, 99, 235, 0.1)"/>
      <line x1="50" y1="802" x2="50" y2="822" stroke="#2563eb" stroke-width="2"/>
      <text x="56" y="815" font-family="Arial, sans-serif" font-size="7.5" fill="#1e3a8a">Asset Registry</text>

      <rect x="165" y="802" width="110" height="20" rx="3" fill="rgba(37, 99, 235, 0.1)"/>
      <line x1="165" y1="802" x2="165" y2="822" stroke="#2563eb" stroke-width="2"/>
      <text x="171" y="815" font-family="Arial, sans-serif" font-size="7.5" fill="#1e3a8a">Performance</text>

      <rect x="280" y="802" width="110" height="20" rx="3" fill="rgba(37, 99, 235, 0.1)"/>
      <line x1="280" y1="802" x2="280" y2="822" stroke="#2563eb" stroke-width="2"/>
      <text x="286" y="815" font-family="Arial, sans-serif" font-size="7.5" fill="#1e3a8a">+2 more...</text>
    </g>

    <!-- Connected Workforce Platform -->
    <g filter="url(#cardShadow)">
      <rect x="45" y="860" width="350" height="55" rx="6" fill="white"/>
      <line x1="50" y1="880" x2="390" y2="880" stroke="#2563eb" stroke-width="2" opacity="0.3"/>
      <text x="50" y="875" font-family="Arial, sans-serif" font-size="10" font-weight="bold" fill="#2563eb">Connected Workforce Platform</text>
      <rect x="50" y="885" width="110" height="20" rx="3" fill="rgba(37, 99, 235, 0.1)"/>
      <line x1="50" y1="885" x2="50" y2="905" stroke="#2563eb" stroke-width="2"/>
      <text x="56" y="898" font-family="Arial, sans-serif" font-size="7.5" fill="#1e3a8a">Workforce Sched</text>
    </g>
  </g>

  <!-- Main Content Area -->
  <g id="mainContent">
    <!-- CONTROLLING Section -->
    <rect x="420" y="110" width="1465" height="145" rx="10" fill="rgba(255, 255, 255, 0.1)" stroke="rgba(255, 255, 255, 0.2)" stroke-width="1"/>
    <text x="430" y="130" font-family="Arial, sans-serif" font-size="12" font-weight="bold" fill="white">CONTROLLING</text>

    <!-- Insight -->
    <g filter="url(#cardShadow)">
      <rect x="430" y="145" width="710" height="100" rx="6" fill="white"/>
      <line x1="435" y1="165" x2="1135" y2="165" stroke="#06b6d4" stroke-width="2" opacity="0.3"/>
      <text x="435" y="160" font-family="Arial, sans-serif" font-size="10" font-weight="bold" fill="#06b6d4">Insight</text>
      <rect x="435" y="170" width="345" height="20" rx="3" fill="rgba(6, 182, 212, 0.1)"/>
      <line x1="435" y1="170" x2="435" y2="190" stroke="#06b6d4" stroke-width="2"/>
      <text x="441" y="183" font-family="Arial, sans-serif" font-size="8" fill="#164e63">Process Queries</text>

      <rect x="785" y="170" width="345" height="20" rx="3" fill="rgba(6, 182, 212, 0.1)"/>
      <line x1="785" y1="170" x2="785" y2="190" stroke="#06b6d4" stroke-width="2"/>
      <text x="791" y="183" font-family="Arial, sans-serif" font-size="8" fill="#164e63">RCA & Post Mortem Queries</text>
    </g>

    <!-- Technology Platform -->
    <g filter="url(#cardShadow)">
      <rect x="1150" y="145" width="710" height="100" rx="6" fill="white"/>
      <line x1="1155" y1="165" x2="1855" y2="165" stroke="#06b6d4" stroke-width="2" opacity="0.3"/>
      <text x="1155" y="160" font-family="Arial, sans-serif" font-size="10" font-weight="bold" fill="#06b6d4">Technology Platform</text>
      <rect x="1155" y="170" width="170" height="20" rx="3" fill="rgba(6, 182, 212, 0.1)"/>
      <line x1="1155" y1="170" x2="1155" y2="190" stroke="#06b6d4" stroke-width="2"/>
      <text x="1161" y="183" font-family="Arial, sans-serif" font-size="8" fill="#164e63">Data Management</text>

      <rect x="1330" y="170" width="170" height="20" rx="3" fill="rgba(6, 182, 212, 0.1)"/>
      <line x1="1330" y1="170" x2="1330" y2="190" stroke="#06b6d4" stroke-width="2"/>
      <text x="1336" y="183" font-family="Arial, sans-serif" font-size="8" fill="#164e63">Security & Compliance</text>

      <rect x="1155" y="192" width="170" height="20" rx="3" fill="rgba(6, 182, 212, 0.1)"/>
      <line x1="1155" y1="192" x2="1155" y2="212" stroke="#06b6d4" stroke-width="2"/>
      <text x="1161" y="205" font-family="Arial, sans-serif" font-size="8" fill="#164e63">System Administration</text>

      <rect x="1330" y="192" width="170" height="20" rx="3" fill="rgba(6, 182, 212, 0.1)"/>
      <line x1="1330" y1="192" x2="1330" y2="212" stroke="#06b6d4" stroke-width="2"/>
      <text x="1336" y="205" font-family="Arial, sans-serif" font-size="8" fill="#164e63">Integration Framework</text>
    </g>

    <!-- OPERATING Section -->
    <rect x="420" y="270" width="1465" height="480" rx="10" fill="rgba(255, 255, 255, 0.1)" stroke="rgba(255, 255, 255, 0.2)" stroke-width="1"/>
    <text x="430" y="290" font-family="Arial, sans-serif" font-size="12" font-weight="bold" fill="white">OPERATING</text>

    <!-- Manufacturing -->
    <g filter="url(#cardShadow)">
      <rect x="430" y="305" width="175" height="430" rx="6" fill="white"/>
      <line x1="435" y1="325" x2="600" y2="325" stroke="#7c3aed" stroke-width="2" opacity="0.3"/>
      <text x="435" y="320" font-family="Arial, sans-serif" font-size="9" font-weight="bold" fill="#7c3aed">Manufacturing</text>
      <rect x="435" y="330" width="160" height="18" rx="3" fill="rgba(124, 58, 237, 0.1)"/>
      <line x1="435" y1="330" x2="435" y2="348" stroke="#7c3aed" stroke-width="2"/>
      <text x="441" y="342" font-family="Arial, sans-serif" font-size="7.5" fill="#581c87">Manuf Scheduling</text>

      <rect x="435" y="350" width="160" height="18" rx="3" fill="rgba(124, 58, 237, 0.1)"/>
      <line x1="435" y1="350" x2="435" y2="368" stroke="#7c3aed" stroke-width="2"/>
      <text x="441" y="362" font-family="Arial, sans-serif" font-size="7.5" fill="#581c87">Scheduling Interface</text>

      <rect x="435" y="370" width="160" height="18" rx="3" fill="rgba(124, 58, 237, 0.1)"/>
      <line x1="435" y1="370" x2="435" y2="388" stroke="#7c3aed" stroke-width="2"/>
      <text x="441" y="382" font-family="Arial, sans-serif" font-size="7.5" fill="#581c87">Capacity Planning</text>

      <rect x="435" y="390" width="160" height="18" rx="3" fill="rgba(124, 58, 237, 0.1)"/>
      <line x1="435" y1="390" x2="435" y2="408" stroke="#7c3aed" stroke-width="2"/>
      <text x="441" y="402" font-family="Arial, sans-serif" font-size="7.5" fill="#581c87">Production Planning</text>

      <rect x="435" y="410" width="160" height="18" rx="3" fill="rgba(124, 58, 237, 0.1)"/>
      <line x1="435" y1="410" x2="435" y2="428" stroke="#7c3aed" stroke-width="2"/>
      <text x="441" y="422" font-family="Arial, sans-serif" font-size="7.5" fill="#581c87">Bill of Materials</text>

      <rect x="435" y="430" width="160" height="18" rx="3" fill="rgba(124, 58, 237, 0.1)"/>
      <line x1="435" y1="430" x2="435" y2="448" stroke="#7c3aed" stroke-width="2"/>
      <text x="441" y="442" font-family="Arial, sans-serif" font-size="7.5" fill="#581c87">Production Orders</text>

      <rect x="435" y="450" width="160" height="18" rx="3" fill="rgba(124, 58, 237, 0.1)"/>
      <line x1="435" y1="450" x2="435" y2="468" stroke="#7c3aed" stroke-width="2"/>
      <text x="441" y="462" font-family="Arial, sans-serif" font-size="7.5" fill="#581c87">Quality Control</text>

      <rect x="435" y="470" width="160" height="18" rx="3" fill="rgba(124, 58, 237, 0.1)"/>
      <line x1="435" y1="470" x2="435" y2="488" stroke="#7c3aed" stroke-width="2"/>
      <text x="441" y="482" font-family="Arial, sans-serif" font-size="7.5" fill="#581c87">+5 more...</text>
    </g>

    <!-- Service Management -->
    <g filter="url(#cardShadow)">
      <rect x="615" y="305" width="175" height="430" rx="6" fill="white"/>
      <line x1="620" y1="325" x2="785" y2="325" stroke="#7c3aed" stroke-width="2" opacity="0.3"/>
      <text x="620" y="320" font-family="Arial, sans-serif" font-size="9" font-weight="bold" fill="#7c3aed">Service Mgmt</text>
      <rect x="620" y="330" width="160" height="18" rx="3" fill="rgba(124, 58, 237, 0.1)"/>
      <line x1="620" y1="330" x2="620" y2="348" stroke="#7c3aed" stroke-width="2"/>
      <text x="626" y="342" font-family="Arial, sans-serif" font-size="7.5" fill="#581c87">Incident Management</text>

      <rect x="620" y="350" width="160" height="18" rx="3" fill="rgba(124, 58, 237, 0.1)"/>
      <line x1="620" y1="350" x2="620" y2="368" stroke="#7c3aed" stroke-width="2"/>
      <text x="626" y="362" font-family="Arial, sans-serif" font-size="7.5" fill="#581c87">Problem Management</text>

      <rect x="620" y="370" width="160" height="18" rx="3" fill="rgba(124, 58, 237, 0.1)"/>
      <line x1="620" y1="370" x2="620" y2="388" stroke="#7c3aed" stroke-width="2"/>
      <text x="626" y="382" font-family="Arial, sans-serif" font-size="7.5" fill="#581c87">Change Management</text>

      <rect x="620" y="390" width="160" height="18" rx="3" fill="rgba(124, 58, 237, 0.1)"/>
      <line x1="620" y1="390" x2="620" y2="408" stroke="#7c3aed" stroke-width="2"/>
      <text x="626" y="402" font-family="Arial, sans-serif" font-size="7.5" fill="#581c87">Request Fulfillment</text>

      <rect x="620" y="410" width="160" height="18" rx="3" fill="rgba(124, 58, 237, 0.1)"/>
      <line x1="620" y1="410" x2="620" y2="428" stroke="#7c3aed" stroke-width="2"/>
      <text x="626" y="422" font-family="Arial, sans-serif" font-size="7.5" fill="#581c87">Service Desk</text>

      <rect x="620" y="430" width="160" height="18" rx="3" fill="rgba(124, 58, 237, 0.1)"/>
      <line x1="620" y1="430" x2="620" y2="448" stroke="#7c3aed" stroke-width="2"/>
      <text x="626" y="442" font-family="Arial, sans-serif" font-size="7.5" fill="#581c87">Asset Service History</text>

      <rect x="620" y="450" width="160" height="18" rx="3" fill="rgba(124, 58, 237, 0.1)"/>
      <line x1="620" y1="450" x2="620" y2="468" stroke="#7c3aed" stroke-width="2"/>
      <text x="626" y="462" font-family="Arial, sans-serif" font-size="7.5" fill="#581c87">SLA Monitoring</text>

      <rect x="620" y="470" width="160" height="18" rx="3" fill="rgba(124, 58, 237, 0.1)"/>
      <line x1="620" y1="470" x2="620" y2="488" stroke="#7c3aed" stroke-width="2"/>
      <text x="626" y="482" font-family="Arial, sans-serif" font-size="7.5" fill="#581c87">+9 more...</text>
    </g>

    <!-- Procurement -->
    <g filter="url(#cardShadow)">
      <rect x="800" y="305" width="175" height="430" rx="6" fill="white"/>
      <line x1="805" y1="325" x2="970" y2="325" stroke="#7c3aed" stroke-width="2" opacity="0.3"/>
      <text x="805" y="320" font-family="Arial, sans-serif" font-size="9" font-weight="bold" fill="#7c3aed">Procurement</text>
      <rect x="805" y="330" width="160" height="18" rx="3" fill="rgba(124, 58, 237, 0.1)"/>
      <line x1="805" y1="330" x2="805" y2="348" stroke="#7c3aed" stroke-width="2"/>
      <text x="811" y="342" font-family="Arial, sans-serif" font-size="7.5" fill="#581c87">Sourcing</text>

      <rect x="805" y="350" width="160" height="18" rx="3" fill="rgba(124, 58, 237, 0.1)"/>
      <line x1="805" y1="350" x2="805" y2="368" stroke="#7c3aed" stroke-width="2"/>
      <text x="811" y="362" font-family="Arial, sans-serif" font-size="7.5" fill="#581c87">Purchase Requisitions</text>

      <rect x="805" y="370" width="160" height="18" rx="3" fill="rgba(124, 58, 237, 0.1)"/>
      <line x1="805" y1="370" x2="805" y2="388" stroke="#7c3aed" stroke-width="2"/>
      <text x="811" y="382" font-family="Arial, sans-serif" font-size="7.5" fill="#581c87">Purchase Orders</text>

      <rect x="805" y="390" width="160" height="18" rx="3" fill="rgba(124, 58, 237, 0.1)"/>
      <line x1="805" y1="390" x2="805" y2="408" stroke="#7c3aed" stroke-width="2"/>
      <text x="811" y="402" font-family="Arial, sans-serif" font-size="7.5" fill="#581c87">Vendor Management</text>

      <rect x="805" y="410" width="160" height="18" rx="3" fill="rgba(124, 58, 237, 0.1)"/>
      <line x1="805" y1="410" x2="805" y2="428" stroke="#7c3aed" stroke-width="2"/>
      <text x="811" y="422" font-family="Arial, sans-serif" font-size="7.5" fill="#581c87">Contract Management</text>

      <rect x="805" y="430" width="160" height="18" rx="3" fill="rgba(124, 58, 237, 0.1)"/>
      <line x1="805" y1="430" x2="805" y2="448" stroke="#7c3aed" stroke-width="2"/>
      <text x="811" y="442" font-family="Arial, sans-serif" font-size="7.5" fill="#581c87">Procurement Analytics</text>

      <rect x="805" y="450" width="160" height="18" rx="3" fill="rgba(124, 58, 237, 0.1)"/>
      <line x1="805" y1="450" x2="805" y2="468" stroke="#7c3aed" stroke-width="2"/>
      <text x="811" y="462" font-family="Arial, sans-serif" font-size="7.5" fill="#581c87">Supplier Collaboration</text>
    </g>

    <!-- Commerce -->
    <g filter="url(#cardShadow)">
      <rect x="985" y="305" width="175" height="430" rx="6" fill="white"/>
      <line x1="990" y1="325" x2="1155" y2="325" stroke="#7c3aed" stroke-width="2" opacity="0.3"/>
      <text x="990" y="320" font-family="Arial, sans-serif" font-size="9" font-weight="bold" fill="#7c3aed">Commerce</text>
      <rect x="990" y="330" width="160" height="18" rx="3" fill="rgba(124, 58, 237, 0.1)"/>
      <line x1="990" y1="330" x2="990" y2="348" stroke="#7c3aed" stroke-width="2"/>
      <text x="996" y="342" font-family="Arial, sans-serif" font-size="7.5" fill="#581c87">Storefront Connectors</text>

      <rect x="990" y="350" width="160" height="18" rx="3" fill="rgba(124, 58, 237, 0.1)"/>
      <line x1="990" y1="350" x2="990" y2="368" stroke="#7c3aed" stroke-width="2"/>
      <text x="996" y="362" font-family="Arial, sans-serif" font-size="7.5" fill="#581c87">Order Management</text>

      <rect x="990" y="370" width="160" height="18" rx="3" fill="rgba(124, 58, 237, 0.1)"/>
      <line x1="990" y1="370" x2="990" y2="388" stroke="#7c3aed" stroke-width="2"/>
      <text x="996" y="382" font-family="Arial, sans-serif" font-size="7.5" fill="#581c87">Product Catalog</text>

      <rect x="990" y="390" width="160" height="18" rx="3" fill="rgba(124, 58, 237, 0.1)"/>
      <line x1="990" y1="390" x2="990" y2="408" stroke="#7c3aed" stroke-width="2"/>
      <text x="996" y="402" font-family="Arial, sans-serif" font-size="7.5" fill="#581c87">Pricing & Promotions</text>
    </g>

    <!-- Aviation Maintenance -->
    <g filter="url(#cardShadow)">
      <rect x="1170" y="305" width="175" height="430" rx="6" fill="white"/>
      <line x1="1175" y1="325" x2="1340" y2="325" stroke="#7c3aed" stroke-width="2" opacity="0.3"/>
      <text x="1175" y="320" font-family="Arial, sans-serif" font-size="9" font-weight="bold" fill="#7c3aed">Aviation Maint</text>
      <rect x="1175" y="330" width="160" height="18" rx="3" fill="rgba(124, 58, 237, 0.1)"/>
      <line x1="1175" y1="330" x2="1175" y2="348" stroke="#7c3aed" stroke-width="2"/>
      <text x="1181" y="342" font-family="Arial, sans-serif" font-size="7.5" fill="#581c87">Aircraft Maintenance</text>

      <rect x="1175" y="350" width="160" height="18" rx="3" fill="rgba(124, 58, 237, 0.1)"/>
      <line x1="1175" y1="350" x2="1175" y2="368" stroke="#7c3aed" stroke-width="2"/>
      <text x="1181" y="362" font-family="Arial, sans-serif" font-size="7.5" fill="#581c87">Flight Operations</text>

      <rect x="1175" y="370" width="160" height="18" rx="3" fill="rgba(124, 58, 237, 0.1)"/>
      <line x1="1175" y1="370" x2="1175" y2="388" stroke="#7c3aed" stroke-width="2"/>
      <text x="1181" y="382" font-family="Arial, sans-serif" font-size="7.5" fill="#581c87">Airworthiness Mgmt</text>

      <rect x="1175" y="390" width="160" height="18" rx="3" fill="rgba(124, 58, 237, 0.1)"/>
      <line x1="1175" y1="390" x2="1175" y2="408" stroke="#7c3aed" stroke-width="2"/>
      <text x="1181" y="402" font-family="Arial, sans-serif" font-size="7.5" fill="#581c87">Component Tracking</text>

      <rect x="1175" y="410" width="160" height="18" rx="3" fill="rgba(124, 58, 237, 0.1)"/>
      <line x1="1175" y1="410" x2="1175" y2="428" stroke="#7c3aed" stroke-width="2"/>
      <text x="1181" y="422" font-family="Arial, sans-serif" font-size="7.5" fill="#581c87">Line Maintenance</text>

      <rect x="1175" y="430" width="160" height="18" rx="3" fill="rgba(124, 58, 237, 0.1)"/>
      <line x1="1175" y1="430" x2="1175" y2="448" stroke="#7c3aed" stroke-width="2"/>
      <text x="1181" y="442" font-family="Arial, sans-serif" font-size="7.5" fill="#581c87">Heavy Maintenance</text>

      <rect x="1175" y="450" width="160" height="18" rx="3" fill="rgba(124, 58, 237, 0.1)"/>
      <line x1="1175" y1="450" x2="1175" y2="468" stroke="#7c3aed" stroke-width="2"/>
      <text x="1181" y="462" font-family="Arial, sans-serif" font-size="7.5" fill="#581c87">+4 more...</text>
    </g>

    <!-- CRM -->
    <g filter="url(#cardShadow)">
      <rect x="1355" y="305" width="175" height="430" rx="6" fill="white"/>
      <line x1="1360" y1="325" x2="1525" y2="325" stroke="#7c3aed" stroke-width="2" opacity="0.3"/>
      <text x="1360" y="320" font-family="Arial, sans-serif" font-size="9" font-weight="bold" fill="#7c3aed">CRM</text>
      <rect x="1360" y="330" width="160" height="18" rx="3" fill="rgba(124, 58, 237, 0.1)"/>
      <line x1="1360" y1="330" x2="1360" y2="348" stroke="#7c3aed" stroke-width="2"/>
      <text x="1366" y="342" font-family="Arial, sans-serif" font-size="7.5" fill="#581c87">Lead Management</text>

      <rect x="1360" y="350" width="160" height="18" rx="3" fill="rgba(124, 58, 237, 0.1)"/>
      <line x1="1360" y1="350" x2="1360" y2="368" stroke="#7c3aed" stroke-width="2"/>
      <text x="1366" y="362" font-family="Arial, sans-serif" font-size="7.5" fill="#581c87">Opportunity Mgmt</text>

      <rect x="1360" y="370" width="160" height="18" rx="3" fill="rgba(124, 58, 237, 0.1)"/>
      <line x1="1360" y1="370" x2="1360" y2="388" stroke="#7c3aed" stroke-width="2"/>
      <text x="1366" y="382" font-family="Arial, sans-serif" font-size="7.5" fill="#581c87">Account Management</text>

      <rect x="1360" y="390" width="160" height="18" rx="3" fill="rgba(124, 58, 237, 0.1)"/>
      <line x1="1360" y1="390" x2="1360" y2="408" stroke="#7c3aed" stroke-width="2"/>
      <text x="1366" y="402" font-family="Arial, sans-serif" font-size="7.5" fill="#581c87">Contact Management</text>

      <rect x="1360" y="410" width="160" height="18" rx="3" fill="rgba(124, 58, 237, 0.1)"/>
      <line x1="1360" y1="410" x2="1360" y2="428" stroke="#7c3aed" stroke-width="2"/>
      <text x="1366" y="422" font-family="Arial, sans-serif" font-size="7.5" fill="#581c87">Sales Pipeline</text>

      <rect x="1360" y="430" width="160" height="18" rx="3" fill="rgba(124, 58, 237, 0.1)"/>
      <line x1="1360" y1="430" x2="1360" y2="448" stroke="#7c3aed" stroke-width="2"/>
      <text x="1366" y="442" font-family="Arial, sans-serif" font-size="7.5" fill="#581c87">Customer Interaction</text>

      <rect x="1360" y="450" width="160" height="18" rx="3" fill="rgba(124, 58, 237, 0.1)"/>
      <line x1="1360" y1="450" x2="1360" y2="468" stroke="#7c3aed" stroke-width="2"/>
      <text x="1366" y="462" font-family="Arial, sans-serif" font-size="7.5" fill="#581c87">+2 more...</text>
    </g>

    <!-- Supply Chain -->
    <g filter="url(#cardShadow)">
      <rect x="1540" y="305" width="175" height="430" rx="6" fill="white"/>
      <line x1="1545" y1="325" x2="1710" y2="325" stroke="#7c3aed" stroke-width="2" opacity="0.3"/>
      <text x="1545" y="320" font-family="Arial, sans-serif" font-size="9" font-weight="bold" fill="#7c3aed">Supply Chain</text>
      <rect x="1545" y="330" width="160" height="18" rx="3" fill="rgba(124, 58, 237, 0.1)"/>
      <line x1="1545" y1="330" x2="1545" y2="348" stroke="#7c3aed" stroke-width="2"/>
      <text x="1551" y="342" font-family="Arial, sans-serif" font-size="7.5" fill="#581c87">Inventory Mgmt</text>

      <rect x="1545" y="350" width="160" height="18" rx="3" fill="rgba(124, 58, 237, 0.1)"/>
      <line x1="1545" y1="350" x2="1545" y2="368" stroke="#7c3aed" stroke-width="2"/>
      <text x="1551" y="362" font-family="Arial, sans-serif" font-size="7.5" fill="#581c87">Warehouse Mgmt</text>

      <rect x="1545" y="370" width="160" height="18" rx="3" fill="rgba(124, 58, 237, 0.1)"/>
      <line x1="1545" y1="370" x2="1545" y2="388" stroke="#7c3aed" stroke-width="2"/>
      <text x="1551" y="382" font-family="Arial, sans-serif" font-size="7.5" fill="#581c87">Logistics Mgmt</text>

      <rect x="1545" y="390" width="160" height="18" rx="3" fill="rgba(124, 58, 237, 0.1)"/>
      <line x1="1545" y1="390" x2="1545" y2="408" stroke="#7c3aed" stroke-width="2"/>
      <text x="1551" y="402" font-family="Arial, sans-serif" font-size="7.5" fill="#581c87">Demand Planning</text>

      <rect x="1545" y="410" width="160" height="18" rx="3" fill="rgba(124, 58, 237, 0.1)"/>
      <line x1="1545" y1="410" x2="1545" y2="428" stroke="#7c3aed" stroke-width="2"/>
      <text x="1551" y="422" font-family="Arial, sans-serif" font-size="7.5" fill="#581c87">Supply Planning</text>

      <rect x="1545" y="430" width="160" height="18" rx="3" fill="rgba(124, 58, 237, 0.1)"/>
      <line x1="1545" y1="430" x2="1545" y2="448" stroke="#7c3aed" stroke-width="2"/>
      <text x="1551" y="442" font-family="Arial, sans-serif" font-size="7.5" fill="#581c87">Distribution Mgmt</text>

      <rect x="1545" y="450" width="160" height="18" rx="3" fill="rgba(124, 58, 237, 0.1)"/>
      <line x1="1545" y1="450" x2="1545" y2="468" stroke="#7c3aed" stroke-width="2"/>
      <text x="1551" y="462" font-family="Arial, sans-serif" font-size="7.5" fill="#581c87">+1 more...</text>
    </g>

    <!-- Projects -->
    <g filter="url(#cardShadow)">
      <rect x="1725" y="305" width="160" height="430" rx="6" fill="white"/>
      <line x1="1730" y1="325" x2="1880" y2="325" stroke="#7c3aed" stroke-width="2" opacity="0.3"/>
      <text x="1730" y="320" font-family="Arial, sans-serif" font-size="9" font-weight="bold" fill="#7c3aed">Projects</text>
      <rect x="1730" y="330" width="145" height="18" rx="3" fill="rgba(124, 58, 237, 0.1)"/>
      <line x1="1730" y1="330" x2="1730" y2="348" stroke="#7c3aed" stroke-width="2"/>
      <text x="1736" y="342" font-family="Arial, sans-serif" font-size="7.5" fill="#581c87">Project Planning</text>

      <rect x="1730" y="350" width="145" height="18" rx="3" fill="rgba(124, 58, 237, 0.1)"/>
      <line x1="1730" y1="350" x2="1730" y2="368" stroke="#7c3aed" stroke-width="2"/>
      <text x="1736" y="362" font-family="Arial, sans-serif" font-size="7.5" fill="#581c87">Resource Allocation</text>

      <rect x="1730" y="370" width="145" height="18" rx="3" fill="rgba(124, 58, 237, 0.1)"/>
      <line x1="1730" y1="370" x2="1730" y2="388" stroke="#7c3aed" stroke-width="2"/>
      <text x="1736" y="382" font-family="Arial, sans-serif" font-size="7.5" fill="#581c87">Project Tracking</text>

      <rect x="1730" y="390" width="145" height="18" rx="3" fill="rgba(124, 58, 237, 0.1)"/>
      <line x1="1730" y1="390" x2="1730" y2="408" stroke="#7c3aed" stroke-width="2"/>
      <text x="1736" y="402" font-family="Arial, sans-serif" font-size="7.5" fill="#581c87">Budget Mgmt</text>

      <rect x="1730" y="410" width="145" height="18" rx="3" fill="rgba(124, 58, 237, 0.1)"/>
      <line x1="1730" y1="410" x2="1730" y2="428" stroke="#7c3aed" stroke-width="2"/>
      <text x="1736" y="422" font-family="Arial, sans-serif" font-size="7.5" fill="#581c87">Milestone Mgmt</text>

      <rect x="1730" y="430" width="145" height="18" rx="3" fill="rgba(124, 58, 237, 0.1)"/>
      <line x1="1730" y1="430" x2="1730" y2="448" stroke="#7c3aed" stroke-width="2"/>
      <text x="1736" y="442" font-family="Arial, sans-serif" font-size="7.5" fill="#581c87">Project Collab</text>

      <rect x="1730" y="450" width="145" height="18" rx="3" fill="rgba(124, 58, 237, 0.1)"/>
      <line x1="1730" y1="450" x2="1730" y2="468" stroke="#7c3aed" stroke-width="2"/>
      <text x="1736" y="462" font-family="Arial, sans-serif" font-size="7.5" fill="#581c87">+4 more...</text>
    </g>

    <!-- MANAGEMENT Section -->
    <rect x="420" y="765" width="1465" height="275" rx="10" fill="rgba(255, 255, 255, 0.1)" stroke="rgba(255, 255, 255, 0.2)" stroke-width="1"/>
    <text x="430" y="785" font-family="Arial, sans-serif" font-size="12" font-weight="bold" fill="white">MANAGEMENT</text>

    <!-- Finance -->
    <g filter="url(#cardShadow)">
      <rect x="430" y="800" width="480" height="225" rx="6" fill="white"/>
      <line x1="435" y1="820" x2="905" y2="820" stroke="#db2777" stroke-width="2" opacity="0.3"/>
      <text x="435" y="815" font-family="Arial, sans-serif" font-size="10" font-weight="bold" fill="#db2777">Finance</text>

      <rect x="435" y="825" width="230" height="18" rx="3" fill="rgba(219, 39, 119, 0.1)"/>
      <line x1="435" y1="825" x2="435" y2="843" stroke="#db2777" stroke-width="2"/>
      <text x="441" y="837" font-family="Arial, sans-serif" font-size="8" fill="#831843">Consolidation</text>

      <rect x="670" y="825" width="230" height="18" rx="3" fill="rgba(219, 39, 119, 0.1)"/>
      <line x1="670" y1="825" x2="670" y2="843" stroke="#db2777" stroke-width="2"/>
      <text x="676" y="837" font-family="Arial, sans-serif" font-size="8" fill="#831843">Financial Reporting & Analysis</text>

      <rect x="435" y="845" width="230" height="18" rx="3" fill="rgba(219, 39, 119, 0.1)"/>
      <line x1="435" y1="845" x2="435" y2="863" stroke="#db2777" stroke-width="2"/>
      <text x="441" y="857" font-family="Arial, sans-serif" font-size="8" fill="#831843">General Ledger</text>

      <rect x="670" y="845" width="230" height="18" rx="3" fill="rgba(219, 39, 119, 0.1)"/>
      <line x1="670" y1="845" x2="670" y2="863" stroke="#db2777" stroke-width="2"/>
      <text x="676" y="857" font-family="Arial, sans-serif" font-size="8" fill="#831843">Accounts Payable</text>

      <rect x="435" y="865" width="230" height="18" rx="3" fill="rgba(219, 39, 119, 0.1)"/>
      <line x1="435" y1="865" x2="435" y2="883" stroke="#db2777" stroke-width="2"/>
      <text x="441" y="877" font-family="Arial, sans-serif" font-size="8" fill="#831843">Accounts Receivable</text>

      <rect x="670" y="865" width="230" height="18" rx="3" fill="rgba(219, 39, 119, 0.1)"/>
      <line x1="670" y1="865" x2="670" y2="883" stroke="#db2777" stroke-width="2"/>
      <text x="676" y="877" font-family="Arial, sans-serif" font-size="8" fill="#831843">Fixed Assets</text>

      <rect x="435" y="885" width="230" height="18" rx="3" fill="rgba(219, 39, 119, 0.1)"/>
      <line x1="435" y1="885" x2="435" y2="903" stroke="#db2777" stroke-width="2"/>
      <text x="441" y="897" font-family="Arial, sans-serif" font-size="8" fill="#831843">Budgeting & Forecasting</text>

      <rect x="670" y="885" width="230" height="18" rx="3" fill="rgba(219, 39, 119, 0.1)"/>
      <line x1="670" y1="885" x2="670" y2="903" stroke="#db2777" stroke-width="2"/>
      <text x="676" y="897" font-family="Arial, sans-serif" font-size="8" fill="#831843">Cash Management</text>

      <rect x="435" y="905" width="230" height="18" rx="3" fill="rgba(219, 39, 119, 0.1)"/>
      <line x1="435" y1="905" x2="435" y2="923" stroke="#db2777" stroke-width="2"/>
      <text x="441" y="917" font-family="Arial, sans-serif" font-size="8" fill="#831843">Financial Planning</text>

      <rect x="670" y="905" width="230" height="18" rx="3" fill="rgba(219, 39, 119, 0.1)"/>
      <line x1="670" y1="905" x2="670" y2="923" stroke="#db2777" stroke-width="2"/>
      <text x="676" y="917" font-family="Arial, sans-serif" font-size="8" fill="#831843">Revenue Recognition</text>
    </g>

    <!-- Human Capital Management -->
    <g filter="url(#cardShadow)">
      <rect x="920" y="800" width="480" height="225" rx="6" fill="white"/>
      <line x1="925" y1="820" x2="1395" y2="820" stroke="#db2777" stroke-width="2" opacity="0.3"/>
      <text x="925" y="815" font-family="Arial, sans-serif" font-size="10" font-weight="bold" fill="#db2777">Human Capital Management</text>

      <rect x="925" y="825" width="230" height="18" rx="3" fill="rgba(219, 39, 119, 0.1)"/>
      <line x1="925" y1="825" x2="925" y2="843" stroke="#db2777" stroke-width="2"/>
      <text x="931" y="837" font-family="Arial, sans-serif" font-size="8" fill="#831843">Employee Records</text>

      <rect x="1160" y="825" width="230" height="18" rx="3" fill="rgba(219, 39, 119, 0.1)"/>
      <line x1="1160" y1="825" x2="1160" y2="843" stroke="#db2777" stroke-width="2"/>
      <text x="1166" y="837" font-family="Arial, sans-serif" font-size="8" fill="#831843">Payroll</text>

      <rect x="925" y="845" width="230" height="18" rx="3" fill="rgba(219, 39, 119, 0.1)"/>
      <line x1="925" y1="845" x2="925" y2="863" stroke="#db2777" stroke-width="2"/>
      <text x="931" y="857" font-family="Arial, sans-serif" font-size="8" fill="#831843">Benefits Administration</text>

      <rect x="1160" y="845" width="230" height="18" rx="3" fill="rgba(219, 39, 119, 0.1)"/>
      <line x1="1160" y1="845" x2="1160" y2="863" stroke="#db2777" stroke-width="2"/>
      <text x="1166" y="857" font-family="Arial, sans-serif" font-size="8" fill="#831843">Talent Acquisition</text>

      <rect x="925" y="865" width="230" height="18" rx="3" fill="rgba(219, 39, 119, 0.1)"/>
      <line x1="925" y1="865" x2="925" y2="883" stroke="#db2777" stroke-width="2"/>
      <text x="931" y="877" font-family="Arial, sans-serif" font-size="8" fill="#831843">Performance Management</text>

      <rect x="1160" y="865" width="230" height="18" rx="3" fill="rgba(219, 39, 119, 0.1)"/>
      <line x1="1160" y1="865" x2="1160" y2="883" stroke="#db2777" stroke-width="2"/>
      <text x="1166" y="877" font-family="Arial, sans-serif" font-size="8" fill="#831843">Learning & Development</text>

      <rect x="925" y="885" width="230" height="18" rx="3" fill="rgba(219, 39, 119, 0.1)"/>
      <line x1="925" y1="885" x2="925" y2="903" stroke="#db2777" stroke-width="2"/>
      <text x="931" y="897" font-family="Arial, sans-serif" font-size="8" fill="#831843">Succession Planning</text>

      <rect x="1160" y="885" width="230" height="18" rx="3" fill="rgba(219, 39, 119, 0.1)"/>
      <line x1="1160" y1="885" x2="1160" y2="903" stroke="#db2777" stroke-width="2"/>
      <text x="1166" y="897" font-family="Arial, sans-serif" font-size="8" fill="#831843">Workforce Analytics</text>

      <rect x="925" y="905" width="230" height="18" rx="3" fill="rgba(219, 39, 119, 0.1)"/>
      <line x1="925" y1="905" x2="925" y2="923" stroke="#db2777" stroke-width="2"/>
      <text x="931" y="917" font-family="Arial, sans-serif" font-size="8" fill="#831843">Time & Attendance</text>
    </g>

    <!-- Asset Management -->
    <g filter="url(#cardShadow)">
      <rect x="1410" y="800" width="475" height="225" rx="6" fill="white"/>
      <line x1="1415" y1="820" x2="1880" y2="820" stroke="#db2777" stroke-width="2" opacity="0.3"/>
      <text x="1415" y="815" font-family="Arial, sans-serif" font-size="10" font-weight="bold" fill="#db2777">Asset Management</text>

      <rect x="1415" y="825" width="230" height="18" rx="3" fill="rgba(219, 39, 119, 0.1)"/>
      <line x1="1415" y1="825" x2="1415" y2="843" stroke="#db2777" stroke-width="2"/>
      <text x="1421" y="837" font-family="Arial, sans-serif" font-size="8" fill="#831843">Asset Lifecycle Management</text>

      <rect x="1650" y="825" width="230" height="18" rx="3" fill="rgba(219, 39, 119, 0.1)"/>
      <line x1="1650" y1="825" x2="1650" y2="843" stroke="#db2777" stroke-width="2"/>
      <text x="1656" y="837" font-family="Arial, sans-serif" font-size="8" fill="#831843">Asset Inventory</text>

      <rect x="1415" y="845" width="230" height="18" rx="3" fill="rgba(219, 39, 119, 0.1)"/>
      <line x1="1415" y1="845" x2="1415" y2="863" stroke="#db2777" stroke-width="2"/>
      <text x="1421" y="857" font-family="Arial, sans-serif" font-size="8" fill="#831843">Asset Maintenance</text>

      <rect x="1650" y="845" width="230" height="18" rx="3" fill="rgba(219, 39, 119, 0.1)"/>
      <line x1="1650" y1="845" x2="1650" y2="863" stroke="#db2777" stroke-width="2"/>
      <text x="1656" y="857" font-family="Arial, sans-serif" font-size="8" fill="#831843">Asset Depreciation</text>

      <rect x="1415" y="865" width="230" height="18" rx="3" fill="rgba(219, 39, 119, 0.1)"/>
      <line x1="1415" y1="865" x2="1415" y2="883" stroke="#db2777" stroke-width="2"/>
      <text x="1421" y="877" font-family="Arial, sans-serif" font-size="8" fill="#831843">Asset Disposal</text>

      <rect x="1650" y="865" width="230" height="18" rx="3" fill="rgba(219, 39, 119, 0.1)"/>
      <line x1="1650" y1="865" x2="1650" y2="883" stroke="#db2777" stroke-width="2"/>
      <text x="1656" y="877" font-family="Arial, sans-serif" font-size="8" fill="#831843">Asset Tracking</text>

      <rect x="1415" y="885" width="230" height="18" rx="3" fill="rgba(219, 39, 119, 0.1)"/>
      <line x1="1415" y1="885" x2="1415" y2="903" stroke="#db2777" stroke-width="2"/>
      <text x="1421" y="897" font-family="Arial, sans-serif" font-size="8" fill="#831843">Asset Valuation</text>

      <rect x="1650" y="885" width="230" height="18" rx="3" fill="rgba(219, 39, 119, 0.1)"/>
      <line x1="1650" y1="885" x2="1650" y2="903" stroke="#db2777" stroke-width="2"/>
      <text x="1656" y="897" font-family="Arial, sans-serif" font-size="8" fill="#831843">Asset Compliance</text>
    </g>
  </g>
</svg>